<svg data-v-0dd9719b="" version="1.0" xmlns="http://www.w3.org/2000/svg" xmlns:xlink="http://www.w3.org/1999/xlink" width="100%" height="100%" viewBox="0 0 340.000000 250.000000" preserveAspectRatio="xMidYMid meet" color-interpolation-filters="sRGB" style="margin: auto;"> <rect data-v-0dd9719b="" x="0" y="0" width="100%" height="100%" fill="#fff" fill-opacity="1" class="background"></rect> <rect data-v-0dd9719b="" x="0" y="0" width="100%" height="100%" fill="url(#watermark)" fill-opacity="1" class="watermarklayer"></rect> <g data-v-0dd9719b="" fill="#f757af" class="icon-text-wrapper icon-svg-group iconsvg" transform="translate(47.464996337890625,99.31352996826172)"><g class="iconsvg-imagesvg" transform="translate(0,0)"><g><rect fill="#f757af" fill-opacity="0" stroke-width="2" x="0" y="0" width="60" height="51.372941871516275" class="image-rect"></rect> <svg x="0" y="0" width="60" height="51.372941871516275" filtersec="colorsb3731993435" class="image-svg-svg primary" style="overflow: visible;"><svg xmlns="http://www.w3.org/2000/svg" xmlns:xlink="http://www.w3.org/1999/xlink" viewBox="0.0009274482727050781 -0.024364527314901352 117.28642272949219 100.42267608642578"><defs><linearGradient id="e6c6c3df-8923-42e3-ab95-79daed35eebb" x1="26.42" y1="86.98" x2="96.8" y2="16.61" gradientTransform="matrix(1, 0, 0, -1, 0, 102.05)" gradientUnits="userSpaceOnUse"><stop offset="0" stop-color="#ffb2c2"></stop><stop offset="1" stop-color="#f85e8a"></stop></linearGradient></defs><title>7608</title><g id="b6e9b9ff-9559-4214-9d12-3846aeb6d13e"><g id="a2376d7d-8080-40b3-b02f-79f1ac3ebec0"><path d="M59.36,47C53.29,48,52.26,57.1,62.74,59.84s26.42.45,26.88-20S53.18,6.3,37.46,30.22,35.11,81.67,59.78,83.76c20.28,1.71,31.44-5.7,36.45-9.11s12.07-.23,2,9.34-44.42,23.93-73-2.4C-1.51,56.93,6,16.22,47.82,6,94.54-5.41,120.47,37.24,101,61.78,83.82,83.42,45.88,70.32,49.07,48.9,52,29.48,72.77,30.22,73.22,40,73.51,46.27,65.28,45.93,59.36,47Z" fill="url(#e6c6c3df-8923-42e3-ab95-79daed35eebb)"></path><path d="M82.61,95.89c-1.52-.45-3.17-.88-4.92-1.34-12.59-3.32-30.38-7.78-41-23.71-7.63-10.68-8.65-26.29.76-40.62,9.15-13.92,25.47-15.34,37.43-10-12.07-7.36-48.28-4.78-52,37.08A37.35,37.35,0,0,0,37.05,90.12C46,97.28,58.76,101.37,74.37,100.2,86.65,99.27,87.29,97.26,82.61,95.89Zm-26.88.3a53,53,0,0,1-5.29-.94A49.47,49.47,0,0,1,45.1,93.7a52.78,52.78,0,0,1-5.37-2.2,52.78,52.78,0,0,0,5.37,2.2,49.47,49.47,0,0,0,5.34,1.55,53,53,0,0,0,5.29.94c1.75.22,3.48.35,5.18.4C59.21,96.54,57.48,96.41,55.73,96.19Z" fill="#3c2299" opacity="0.5" style="isolation:isolate"></path><path d="M104.33,19.67C101.26.1,79.46-3.53,60.13,4.17,40.21,12.11,22.92,32.09,31.48,59c-2-8.92-.36-19.16,6-28.82,15.7-23.9,52.6-10.91,52.14,9.59s-16.4,22.78-26.88,20S53.29,48,59.36,47c5.92-1,14.15-.69,13.86-6.94C72.77,30.22,52,29.48,49.07,48.9a16.63,16.63,0,0,0,2.07,10.87c9.17,15.72,52.85,9,53.92-29.4A59,59,0,0,0,104.33,19.67Z" fill="#ff3e24" opacity="0.5"></path><path d="M32.11,12C18.57,14.12,6.77,19.79,2.27,28.41c-5.45,10.44-.72,24,10.31,35.09S41,83.28,60.8,83.84l-1-.08c-24.67-2.09-38-29.62-22.32-53.54,11.93-18.15,36.07-15,46.81-3.53C73.88,13.37,51.26,9.1,32.11,12Z" fill="#ff0098" opacity="0.6"></path><path d="M103.41,71.35c.83,2.15,15.55-1,13.72-5.83S102.57,69.2,103.41,71.35ZM34.7,8c2.3.17,4.94-7.47-.17-8S32.41,7.76,34.7,8Z" fill="#f757af"></path><path d="M102.45,66c.44,2.55,6-2,4.32-4.06S102.17,64.37,102.45,66ZM9.58,65c-4.35.74-2.11,6.29,1.32,3.5C12.85,66.93,12,64.61,9.58,65Z" fill="#ab8eeb"></path><path d="M31.83,8.61c-.49-2.45-3.14-6.47-6.46-7.09-2.79-.5-7.86,5.32,1.75,8.34C32.63,11.59,32.06,9.79,31.83,8.61Z" fill="#ffbd88"></path></g></g></svg></svg> <!----></g></g> <g transform="translate(67,5.626468658447266)"><g data-gra="path-name" fill-rule="" class="tp-name iconsvg-namesvg"><g transform="scale(1)"><g><path d="M30.36 0Q30.7 0 30.96-0.26 31.21-0.51 31.21-0.85L31.21-0.85 31.21-4.71 8.63-4.71 8.63-18.22 29.17-18.22Q29.51-18.22 29.76-18.47 30.02-18.73 30.02-19.07L30.02-19.07 30.02-22.87 8.63-22.87 8.51-35.07 29.45-35.07Q29.79-35.07 30.05-35.32 30.3-35.58 30.3-35.92L30.3-35.92 30.3-39.72 2.84-39.72 2.84 0 30.36 0ZM44.43-35.01L53.57-35.01Q57.88-35.01 60.21-33.62 62.53-32.23 62.53-28.15L62.53-28.15Q62.53-24.12 60.18-22.47 57.82-20.83 53.57-20.83L53.57-20.83 44.43-20.83 44.43-35.01ZM44.43-16.06L53.57-16.06Q60.15-16.06 63.95-19.01L63.95-19.01Q67.76-21.9 67.76-28.15L67.76-28.15Q67.76-34.73 63.9-37.23L63.9-37.23Q59.92-39.72 53.11-39.72L53.11-39.72 38.93-39.72 38.93 0 43.58 0Q43.92 0 44.18-0.26 44.43-0.51 44.43-0.85L44.43-0.85 44.43-16.06ZM72.3-19.41Q72.3-14.02 74.37-9.59 76.44-5.16 80.3-2.58 84.16 0 89.32 0L89.32 0Q94.6 0 98.46-2.64 102.31-5.28 104.33-9.82 106.34-14.36 106.34-19.86L106.34-19.86Q106.34-25.31 104.36-29.82 102.37-34.33 98.54-37.03 94.71-39.72 89.32-39.72L89.32-39.72Q83.81-39.72 79.98-37.03 76.15-34.33 74.22-29.71 72.3-25.08 72.3-19.41L72.3-19.41ZM77.57-19.18Q77.57-26.05 80.3-30.64 83.02-35.24 89.32-35.24L89.32-35.24Q93.4-35.24 96.1-33.11 98.8-30.98 99.82-27.49 100.84-24 100.84-19.86L100.84-19.86Q100.84-15.61 99.82-12.09 98.8-8.57 96.1-6.41 93.4-4.26 89.32-4.26L89.32-4.26Q85.35-4.26 82.57-6.3 79.79-8.34 78.68-11.75 77.57-15.15 77.57-19.18L77.57-19.18ZM139.09-12.43Q137.78-8.91 134.52-6.44 131.25-3.97 127.45-3.97L127.45-3.97Q123.14-3.97 120.33-6.3 117.52-8.63 116.56-12.17 115.59-15.72 115.59-19.63L115.59-19.63Q115.59-23.83 116.76-27.32 117.92-30.81 120.7-32.91 123.48-35.01 127.28-35.01L127.28-35.01Q131.2-35.01 134.15-32.97 137.1-30.93 138.4-28.09L138.4-28.09 142.83-29.22Q140.39-34.45 136.67-36.89 132.96-39.33 126.77-39.33L126.77-39.33Q121.66-39.33 117.81-36.66 113.95-33.99 111.85-29.42 109.75-24.85 109.75-19.29L109.75-19.29Q109.75-13.79 111.79-9.33 113.83-4.88 117.92-2.24 122.01 0.4 127.85 0.4L127.85 0.4Q133.69 0.4 137.72-2.64 141.75-5.67 143.46-11.29L143.46-11.29 139.09-12.43ZM149.7 0.06L153.67-11.97 171.26-11.97 175.46 0.06 180.91 0.06 164.96-39.67 159.12-39.67 144.02 0.06 149.7 0.06ZM162.41-34.79L169.73-16.23 155.09-16.23 162.41-34.79Z" transform="translate(-2.8400001525878906, 39.720001220703125)"></path></g> <!----> <!----> <!----> <!----> <!----> <!----> <!----></g></g> <!----></g></g><defs v-gra="od"></defs></svg>